<svg xmlns="http://www.w3.org/2000/svg" viewBox="0 0 512 512">
    <defs/>
    <path fill="#90a0b2" d="M512 256c0 131.02-106.21 237.23-237.23 237.23S37.53 387.02 37.53 256 143.75 18.77 274.77 18.77 512 124.98 512 256zm0 0"/>
    <path fill="#f7c696" d="M408.1 319.2l-2.07-.55a22.52 22.52 0 01-15.87-27.5l.37-1.37a23.59 23.59 0 01-28.8 16.63 23.59 23.59 0 01-16.63-28.8c-3.35 12.5-16.31 19.97-28.8 16.62s-19.98-16.3-16.63-28.8a23.58 23.58 0 01-28.8 16.63 23.58 23.58 0 01-16.63-28.8l9.04-33.74-9.4-2.51a24.96 24.96 0 00-20.22 3.28 63.91 63.91 0 00-27.37 66.19c5.13 23.42-3.1-3.07 29.74 75.25a24.93 24.93 0 011.2 16.4l-28.35 105.82a237.32 237.32 0 0065.89 9.28c32.88 0 64.2-6.7 92.68-18.79l17.8-66.46c1-3.69 2.82-7.1 5.33-9.97l24.49-27.99a24.95 24.95 0 005.32-9.98l14.06-52.45-.38-.22a22.54 22.54 0 01-25.98 11.83h.01zm-.01 0"/>
    <path fill="#7c5577" d="M184.68 226.83L469.55 350.7a30.35 30.35 0 0024.2-55.65L208.88 171.18l-24.2 55.65zm24.2-55.65"/>
    <path fill="#684261" d="M486.75 324.1l-289.6-125.93-12.47 28.66L469.55 350.7a30.35 30.35 0 0042.42-26.66 31.35 31.35 0 01-25.22.06zm0 0"/>
    <path fill="#603256" d="M227.42 245.4l24.2-55.65 217.54 94.57-24.2 55.66-217.54-94.58zm217.54 94.58"/>
    <path fill="#4f2649" d="M227.42 245.4l12.46-28.66 217.54 94.58-12.46 28.65-217.54-94.57zm217.54 94.57"/>
    <path fill="#603256" d="M488.6 331.45a10.13 10.13 0 01-14.13-2.18 10.13 10.13 0 013.9-15.14 10.1 10.1 0 0112.41 3.18 10.1 10.1 0 01-2.17 14.14h-.01zM209.95 170.38l-25.12 57.78c-4.01 9.22-14.98 13.34-24.5 9.2-9.53-4.15-14-14.97-9.99-24.2l25.12-57.78c4.01-9.22 14.98-13.34 24.5-9.2 9.53 4.14 14 14.98 9.99 24.2zm278.66 161.07"/>
    <path fill="#4f2649" d="M175.6 202.2a20.48 20.48 0 01-12.44-18.5l-12.82 29.46c-4 9.23.46 20.06 9.98 24.2 9.53 4.14 20.5.02 24.5-9.2l12.82-29.47a20.49 20.49 0 01-22.03 3.51h-.01zm.01 0"/>
    <path fill="#ebeaec" d="M124.91 3.16L78.49 39.18a14.98 14.98 0 00-4.54 5.84L.9 213.04a10.96 10.96 0 005.75 14.39l105.81 46a10.96 10.96 0 0014.45-5.6L199.96 99.8c1-2.3 1.4-4.8 1.18-7.3L195.8 34a15.2 15.2 0 00-9.1-12.54L140.3 1.27a15.21 15.21 0 00-15.38 1.9l-.01-.01zm.01.01"/>
    <path fill="#dad9dd" d="M150.4 188.08L43.2 141.46a11.16 11.16 0 01-6.74-10.2L.9 213.04a10.96 10.96 0 005.75 14.39l105.81 46a10.95 10.95 0 0014.44-5.6l35.56-81.78a11.16 11.16 0 01-12.05 2.03h-.01zm.01 0"/>
    <path fill="#dad9dd" d="M37.54 240.85L141.47 1.78l44.05 19.15L81.58 260l-44.04-19.15zM81.58 260"/>
    <path fill="#bcbcc1" d="M37.54 240.85l37.24-85.66 44.04 19.15L81.6 260l-44.06-19.15zM81.6 260"/>
    <g fill="#fcd2a4">
        <path d="M407.34 322.02l-2.06-.56a22.51 22.51 0 01-15.88-27.49l18.62-69.46a22.52 22.52 0 0127.5-15.87l2.05.55a22.52 22.52 0 0115.88 27.5l-18.62 69.45a22.51 22.51 0 01-27.49 15.88zm0 0"/>
        <path d="M360.97 309.23a23.59 23.59 0 01-16.63-28.8l22.32-83.28a23.59 23.59 0 0128.8-16.63 23.58 23.58 0 0116.63 28.8l-22.32 83.28a23.58 23.58 0 01-28.8 16.63zm0 0"/>
        <path d="M315.54 297.05a23.59 23.59 0 01-16.63-28.8l23.7-88.46a23.59 23.59 0 0128.8-16.63 23.59 23.59 0 0116.64 28.8l-23.7 88.47a23.59 23.59 0 01-28.8 16.62h-.01zm.01 0"/>
        <path d="M303.07 161.86a23.59 23.59 0 00-28.8 16.63l-20.79 77.6a23.59 23.59 0 0016.63 28.8 23.59 23.59 0 0028.8-16.64l20.8-77.59a23.58 23.58 0 00-16.64-28.8zm0 0"/>
    </g>
    <path fill="#f7c696" d="M237.84 375.02c11.37 9.4 32.18 20.6 55.42 3.96 15.45-11.06 11.35-41.11 11.35-41.11-7.55-39.9-25.09-56.82-33.87-63-.76-.53-.2-1.71.7-1.47l12.12 3.25a33.44 33.44 0 0012.62.9 24.95 24.95 0 002.05-48.66L253.89 217a24.98 24.98 0 00-20.23 3.28 63.9 63.9 0 00-27.37 66.19c5.13 23.42-3.1-3.07 29.74 75.25 1.82 4.2 2.42 8.8 1.81 13.29v.01zm0-.01"/>
    <path fill="#eceeed" d="M280.74 248.6l21.61 5.8a11.7 11.7 0 0013.79-6.8 24.96 24.96 0 00-17.91-18.72l-22.67-6.07-3.08 11.5a11.7 11.7 0 008.26 14.3v-.01zm0 .01"/>
    <path fill="#f2ba88" d="M293.4 366.38a7.3 7.3 0 01-5.37-7.3c2.04-57.34-33-82.03-33.35-82.28a7.3 7.3 0 018.25-12.03c1.71 1.18 42 29.56 39.68 94.83a7.3 7.3 0 01-9.22 6.78h.01zm-57 14.92l-27.52 102.66a237.32 237.32 0 0065.89 9.27c32.88 0 64.2-6.7 92.68-18.79l16.37-61.08c-45.35 48.3-126.2 30.94-147.43-32.06h.01zm56.99-14.92"/>
</svg>
